# xmcd CD database file
#
# Track frame offsets:
#	150
#	16642
#	33600
#	50962
#	68577
#	84600
#	104595
#	121275
#	135482
#	155137
#
# Disc length: 2340 seconds
#
# Revision: 0
# Processed by: cddbd v1.5PL3 Copyright (c) Steve Scherf et al.
# Submitted via: CDex 1.51
#
DISCID=8609220a
DTITLE=三田寛子 - モザイク
DYEAR=1985
DGENRE=Pop
TTITLE0=ひとりぼっちのクーデター
TTITLE1=恋するメトロ
TTITLE2=死ぬまで笑ってて・・
TTITLE3=春の冒険
TTITLE4=ガラス窓
TTITLE5=貝殻物語
TTITLE6=ときめきおぼろ
TTITLE7=誘惑世代
TTITLE8=見つめてほしい
TTITLE9=20才の前で
EXTD=YEAR: 1985
EXTT0=
EXTT1=
EXTT2=
EXTT3=
EXTT4=
EXTT5=
EXTT6=
EXTT7=
EXTT8=
EXTT9=
PLAYORDER=
